<?xml version="1.0" standalone="no"?>
<!DOCTYPE svg PUBLIC "-//W3C//DTD SVG 20010904//EN"
 "http://www.w3.org/TR/2001/REC-SVG-20010904/DTD/svg10.dtd">
<svg version="1.0" xmlns="http://www.w3.org/2000/svg"
 width="568.000000pt" height="568.000000pt" viewBox="0 0 568.000000 568.000000"
 preserveAspectRatio="xMidYMid meet">
<metadata>
Created by potrace 1.11, written by Peter Selinger 2001-2013
</metadata>
<g transform="translate(0.000000,568.000000) scale(0.100000,-0.100000)"
fill="#000000" stroke="none">
<path d="M0 2840 l0 -2840 2840 0 2840 0 0 2840 0 2840 -2840 0 -2840 0 0
-2840z m4230 1150 c216 -21 391 -99 542 -239 99 -91 168 -200 214 -335 36
-104 35 -106 -35 -106 l-58 0 -23 63 c-72 199 -200 341 -381 426 -138 65 -192
75 -374 75 -146 0 -168 -3 -250 -28 -162 -49 -291 -140 -394 -276 -155 -206
-219 -446 -208 -780 12 -353 118 -614 326 -802 196 -177 491 -238 786 -163
217 55 411 235 478 442 39 120 47 173 47 313 l0 130 -390 0 -390 0 0 60 0 60
453 -2 452 -3 3 -135 c7 -315 -53 -534 -195 -710 -109 -134 -257 -226 -440
-272 -76 -20 -114 -23 -273 -22 -173 0 -191 2 -275 28 -141 43 -253 108 -357
205 -105 99 -212 253 -257 370 -114 296 -131 663 -46 979 110 403 418 681 802
721 109 12 135 12 243 1z m-3391 -57 c7 -16 211 -485 453 -1043 242 -558 442
-1017 444 -1019 2 -2 6 -2 10 1 4 4 864 1985 901 2076 3 8 28 12 74 12 l69 0
0 -1125 0 -1125 -55 0 -55 0 0 1002 c0 551 -3 998 -7 994 -4 -4 -201 -453
-439 -999 l-431 -992 -59 -3 c-59 -3 -60 -2 -75 30 -9 18 -204 467 -435 998
l-419 965 -3 -998 -2 -997 -60 0 -60 0 0 1125 0 1125 68 0 c65 0 69 -1 81 -27z"/>
</g>
</svg>
